<?xml version="1.0" encoding="UTF-8" standalone="no"?><!DOCTYPE svg PUBLIC "-//W3C//DTD SVG 1.1//EN" "http://www.w3.org/Graphics/SVG/1.1/DTD/svg11.dtd"><svg width="100%" height="100%" viewBox="0 0 336 369" version="1.1" xmlns="http://www.w3.org/2000/svg" xmlns:xlink="http://www.w3.org/1999/xlink" xml:space="preserve" xmlns:serif="http://www.serif.com/" style="fill-rule:evenodd;clip-rule:evenodd;stroke-linecap:round;stroke-linejoin:round;stroke-miterlimit:1.5;"><g><path d="M268.397,337.693c-17.446,0.002 -34.905,-0.414 -52.334,0.169c-9.49,0.316 -14.238,-2.221 -13.747,-13.87c0.726,-17.292 0.459,-34.653 0.088,-51.973c-0.186,-8.762 3.059,-11.743 10.91,-11.687c36.431,0.26 72.863,0.209 109.294,0.039c8.106,-0.037 12.615,2.985 12.52,12.528c-0.174,17.883 -0.301,35.778 0.056,53.655c0.182,9.168 -3.956,11.341 -11.371,11.229c-18.469,-0.282 -36.944,-0.091 -55.416,-0.09" style="fill:#b8e3e1;fill-rule:nonzero;"/><path d="M200.29,298.879c-0.003,18.473 -0.353,36.954 0.139,55.41c0.265,9.924 -2.562,14.324 -12.239,13.842c-13.333,-0.666 -26.729,-0.594 -40.068,-0.019c-9.14,0.393 -12.803,-2.859 -12.685,-13.344c0.427,-37.498 0.414,-75.007 0.008,-112.507c-0.126,-11.672 3.971,-16.17 14.555,-15.667c12.309,0.585 24.67,0.489 36.988,0.035c10.096,-0.372 13.653,4.553 13.423,15.158c-0.411,19.022 -0.116,38.06 -0.121,57.092" style="fill:#b8e3e1;fill-rule:nonzero;"/><path d="M66.849,337.693c-17.446,0.002 -34.905,-0.414 -52.334,0.169c-9.49,0.316 -14.238,-2.221 -13.747,-13.87c0.726,-17.292 0.459,-34.653 0.088,-51.973c-0.187,-8.762 3.058,-11.743 10.909,-11.687c36.431,0.26 72.864,0.209 109.294,0.039c8.106,-0.037 12.615,2.985 12.521,12.528c-0.175,17.883 -0.301,35.778 0.056,53.655c0.182,9.168 -3.956,11.341 -11.372,11.229c-18.468,-0.282 -36.943,-0.091 -55.415,-0.09" style="fill:#b8e3e1;fill-rule:nonzero;"/><path d="M99.141,184.87c-0.003,18.473 -0.354,36.954 0.139,55.41c0.264,9.925 -2.563,14.324 -12.24,13.842c-13.333,-0.665 -26.729,-0.594 -40.068,-0.019c-9.139,0.393 -12.803,-2.859 -12.684,-13.344c0.426,-37.498 0.414,-75.007 0.007,-112.507c-0.126,-11.671 3.972,-16.17 14.555,-15.667c12.309,0.585 24.67,0.489 36.989,0.035c10.095,-0.372 13.652,4.553 13.422,15.158c-0.411,19.022 -0.116,38.06 -0.12,57.092" style="fill:#b8e3e1;fill-rule:nonzero;"/><path d="M300.689,184.87c-0.003,18.473 -0.354,36.954 0.139,55.41c0.264,9.925 -2.562,14.324 -12.239,13.842c-13.333,-0.665 -26.73,-0.594 -40.069,-0.019c-9.139,0.393 -12.803,-2.859 -12.684,-13.344c0.426,-37.498 0.414,-75.007 0.008,-112.507c-0.127,-11.671 3.971,-16.17 14.555,-15.667c12.308,0.585 24.67,0.489 36.988,0.035c10.095,-0.372 13.653,4.553 13.423,15.158c-0.411,19.022 -0.116,38.06 -0.121,57.092" style="fill:#b8e3e1;fill-rule:nonzero;"/><path d="M167.247,223.685c-17.446,0.001 -34.904,-0.415 -52.333,0.168c-9.49,0.316 -14.239,-2.221 -13.747,-13.87c0.726,-17.292 0.458,-34.653 0.088,-51.973c-0.187,-8.762 3.058,-11.743 10.909,-11.687c36.431,0.26 72.863,0.209 109.294,0.039c8.106,-0.037 12.615,2.985 12.521,12.528c-0.175,17.883 -0.302,35.778 0.055,53.655c0.182,9.168 -3.956,11.341 -11.371,11.229c-18.469,-0.282 -36.944,-0.091 -55.416,-0.089" style="fill:#b8e3e1;fill-rule:nonzero;"/><path d="M268.397,111.545c-17.446,0.002 -34.905,-0.415 -52.334,0.168c-9.49,0.316 -14.238,-2.22 -13.747,-13.87c0.726,-17.292 0.459,-34.653 0.088,-51.973c-0.186,-8.762 3.059,-11.743 10.91,-11.687c36.431,0.26 72.863,0.21 109.294,0.039c8.106,-0.037 12.615,2.985 12.52,12.528c-0.174,17.883 -0.301,35.779 0.056,53.656c0.182,9.167 -3.956,11.341 -11.371,11.228c-18.469,-0.282 -36.944,-0.091 -55.416,-0.089" style="fill:#b8e3e1;fill-rule:nonzero;"/><path d="M200.29,72.73c-0.003,18.473 -0.353,36.954 0.139,55.41c0.265,9.925 -2.562,14.324 -12.239,13.842c-13.333,-0.665 -26.729,-0.594 -40.068,-0.019c-9.14,0.393 -12.803,-2.859 -12.685,-13.344c0.427,-37.498 0.414,-75.007 0.008,-112.506c-0.126,-11.672 3.971,-16.171 14.555,-15.668c12.309,0.585 24.67,0.489 36.988,0.035c10.096,-0.372 13.653,4.553 13.423,15.158c-0.411,19.023 -0.116,38.06 -0.121,57.092" style="fill:#b8e3e1;fill-rule:nonzero;"/><path d="M66.849,111.545c-17.446,0.002 -34.905,-0.415 -52.334,0.168c-9.49,0.316 -14.238,-2.22 -13.747,-13.87c0.726,-17.292 0.459,-34.653 0.088,-51.973c-0.187,-8.762 3.058,-11.743 10.909,-11.687c36.431,0.26 72.864,0.21 109.294,0.039c8.106,-0.037 12.615,2.985 12.521,12.528c-0.175,17.883 -0.301,35.779 0.056,53.656c0.182,9.167 -3.956,11.341 -11.372,11.228c-18.468,-0.282 -36.943,-0.091 -55.415,-0.089" style="fill:#b8e3e1;fill-rule:nonzero;"/><path d="M102,256l136,-136" style="fill:none;stroke:#ff758b;stroke-width:24.52px;"/><text x="69px" y="294px" style="font-family:'Raleway-Black', 'Raleway', sans-serif;font-weight:900;font-size:48px;">1</text><text x="249px" y="100px" style="font-family:'Raleway-Black', 'Raleway', sans-serif;font-weight:900;font-size:48px;">2</text></g></svg>